# xmcd
# 
# Track frame offsets:
#     150
#     19564
#     38716
#     64664
#     79887
#     100230
#     121999
#     141868
#     162975
#     178882
#     199613
#     220843
# 
# Disc length: 3242
# 
# Revision: 1
# Processed by: cddbd v1.5.2PL0 Copyright (c) Steve Scherf et al.
# Submitted via: BonkEnc v1.0.8
# 
DISCID=a20ca80c
DTITLE=Various Artist - 周蕙精选2- 好想好好爱你
DYEAR=2003
DGENRE=Blues
TTITLE0=周蕙 - 0
TTITLE1=周蕙 - 1
TTITLE2=周蕙 - 2
TTITLE3=周蕙 - .
TTITLE4=周蕙 - A
TTITLE5=周蕙 - N
TTITLE6=周蕙 - G
TTITLE7=周蕙 - 7
TTITLE8=周蕙 - 0
TTITLE9=周蕙 - 9
TTITLE10=周蕙 - 1
TTITLE11=周蕙 - 1
EXTD=YEAR: 2003
EXTT0=
EXTT1=
EXTT2=
EXTT3=
EXTT4=
EXTT5=
EXTT6=
EXTT7=
EXTT8=
EXTT9=
EXTT10=
EXTT11=
PLAYORDER=
